<svg width="14" height="12" viewBox="0 0 14 12" fill="none" xmlns="http://www.w3.org/2000/svg">
<path d="M2.275 0H11.725C12.9381 0 13.9294 1.01734 13.9964 2.29918L14 2.4375V9.5625C14 10.8623 13.0505 11.9244 11.8541 11.9962L11.725 12H2.275C1.06188 12 0.070525 10.9826 0.00359805 9.7008L0 9.5625V2.4375C0 1.13773 0.949515 0.0755624 2.14591 0.00385487L2.275 0H11.725H2.275ZM12.95 4.02975L7.24451 7.24778C7.11333 7.32172 6.96017 7.3323 6.82276 7.2795L6.75549 7.24778L1.05 4.0305V9.5625C1.05 10.2512 1.54498 10.8159 2.17453 10.8706L2.275 10.875H11.725C12.3677 10.875 12.8948 10.3447 12.9459 9.67012L12.95 9.5625V4.02975ZM11.725 1.125H2.275C1.63228 1.125 1.10517 1.65533 1.05406 2.32985L1.05 2.4375V2.75925L7 6.11438L12.95 2.7585V2.4375C12.95 1.74887 12.455 1.18411 11.8254 1.12935L11.725 1.125Z" fill="#4B74C2"/>
</svg>
