<svg width="28" height="28" viewBox="0 0 28 28" fill="none" xmlns="http://www.w3.org/2000/svg">
<path d="M14 0C21.732 0 28 6.26803 28 14.0001C28 21.732 21.732 28 14 28C6.26802 28 0 21.732 0 14.0001C0 6.26803 6.26802 0 14 0ZM14 2.09968C7.42764 2.09968 2.09968 7.42765 2.09968 14.0001C2.09968 20.5725 7.42764 25.9003 14 25.9003C20.5725 25.9003 25.9003 20.5725 25.9003 14.0001C25.9003 7.42765 20.5725 2.09968 14 2.09968ZM13.9949 11.899C14.5264 11.8987 14.9659 12.2933 15.0357 12.8056L15.0454 12.9481L15.0504 20.6492C15.0509 21.229 14.5811 21.6993 14.0013 21.6997C13.4698 21.7 13.0303 21.3054 12.9604 20.7931L12.9508 20.6506L12.9457 12.9495C12.9454 12.3697 13.4151 11.8994 13.9949 11.899ZM14.0006 7.00287C14.7727 7.00287 15.3986 7.62874 15.3986 8.40078C15.3986 9.17283 14.7727 9.7987 14.0006 9.7987C13.2286 9.7987 12.6028 9.17283 12.6028 8.40078C12.6028 7.62874 13.2286 7.00287 14.0006 7.00287Z" fill="white"/>
</svg>
