<svg width="12" height="14" viewBox="0 0 12 14" fill="none" xmlns="http://www.w3.org/2000/svg">
<path d="M1.75736 1.78675C4.10051 -0.595584 7.8995 -0.595584 10.2426 1.78675C12.5858 4.16909 12.5858 8.03165 10.2426 10.414L9.42471 11.2364C8.8219 11.8379 8.03966 12.6114 7.07785 13.5569C6.47677 14.1478 5.52322 14.1477 4.92227 13.5567L2.51663 11.1776C2.21429 10.8757 1.96122 10.6212 1.75736 10.414C-0.585787 8.03165 -0.585787 4.16909 1.75736 1.78675ZM9.51174 2.52985C7.57226 0.557916 4.42774 0.557916 2.48824 2.52985C0.548745 4.50178 0.548745 7.69893 2.48824 9.67085L3.51295 10.699C4.07724 11.2604 4.78659 11.9613 5.64084 12.8013C5.84116 12.9983 6.15903 12.9984 6.35935 12.8014L8.6987 10.4884C9.02187 10.1659 9.29289 9.89336 9.51174 9.67085C11.4513 7.69893 11.4513 4.50178 9.51174 2.52985ZM5.99999 4.19027C7.14228 4.19027 8.06833 5.13177 8.06833 6.29317C8.06833 7.45456 7.14228 8.39603 5.99999 8.39603C4.85771 8.39603 3.9317 7.45456 3.9317 6.29317C3.9317 5.13177 4.85771 4.19027 5.99999 4.19027ZM5.99999 5.24118C5.42854 5.24118 4.96534 5.71216 4.96534 6.29317C4.96534 6.87418 5.42854 7.34513 5.99999 7.34513C6.57144 7.34513 7.03471 6.87418 7.03471 6.29317C7.03471 5.71216 6.57144 5.24118 5.99999 5.24118Z" fill="#4B74C2"/>
</svg>
