<svg width="28" height="26" viewBox="0 0 28 26" fill="none" xmlns="http://www.w3.org/2000/svg">
<path d="M20.5353 5.10105L27.424 11.6219C27.9343 12.1071 27.9343 13.0029 27.424 13.4354L20.5353 19.8305C20.1647 20.1813 19.6211 20.2771 19.1531 20.0755C18.6852 19.8729 18.3818 19.4105 18.3818 18.8998L22.5615 14.041H8.70211C7.76228 14.041 7 13.9422 7 13V12.2064C7 11.2642 7.76175 11 8.70211 11H22.5615L18.3818 6.0318C18.3818 5.521 18.6852 5.05856 19.1531 4.8561C19.6209 4.6545 20.1645 4.75031 20.5353 5.10105Z" fill="white"/>
<path d="M1 4.99999C1 2.79086 2.79086 1 5 1H10.2806C12.4898 1 14.2806 2.79086 14.2806 5V12.8679V20.7358C14.2806 22.945 12.4898 24.7358 10.2806 24.7358H5C2.79086 24.7358 1 22.9449 1 20.7358V4.99999Z" stroke="white" stroke-width="2" stroke-miterlimit="1.01253"/>
</svg>
