<svg width="29" height="27" viewBox="0 0 29 27" fill="none" xmlns="http://www.w3.org/2000/svg">
<path d="M18.1145 5.0164C18.6826 5.0164 19.1431 4.54361 19.1431 3.96039C19.1431 3.37718 18.6826 2.90439 18.1145 2.90439C17.5464 2.90439 17.0859 3.37718 17.0859 3.96039C17.0859 4.54361 17.5464 5.0164 18.1145 5.0164Z" fill="white"/>
<path d="M20.8567 5.0164C21.4248 5.0164 21.8853 4.54361 21.8853 3.96039C21.8853 3.37718 21.4248 2.90439 20.8567 2.90439C20.2886 2.90439 19.8281 3.37718 19.8281 3.96039C19.8281 4.54361 20.2886 5.0164 20.8567 5.0164Z" fill="white"/>
<path d="M24.6274 3.96039C24.6274 4.54361 24.1669 5.0164 23.5989 5.0164C23.0308 5.0164 22.5703 4.54361 22.5703 3.96039C22.5703 3.37718 23.0308 2.90439 23.5989 2.90439C24.1669 2.90439 24.6274 3.37718 24.6274 3.96039Z" fill="white"/>
<path d="M11.9426 10.648C12.5107 10.648 12.9712 10.1752 12.9712 9.59203C12.9712 9.00882 12.5107 8.53603 11.9426 8.53603C11.3746 8.53603 10.9141 9.00882 10.9141 9.59203C10.9141 10.1752 11.3746 10.648 11.9426 10.648Z" fill="white"/>
<path d="M14.6858 10.648C15.2539 10.648 15.7144 10.1752 15.7144 9.59203C15.7144 9.00882 15.2539 8.53603 14.6858 8.53603C14.1177 8.53603 13.6572 9.00882 13.6572 9.59203C13.6572 10.1752 14.1177 10.648 14.6858 10.648Z" fill="white"/>
<path d="M18.4575 9.59203C18.4575 10.1752 17.997 10.648 17.429 10.648C16.8609 10.648 16.4004 10.1752 16.4004 9.59203C16.4004 9.00882 16.8609 8.53603 17.429 8.53603C17.997 8.53603 18.4575 9.00882 18.4575 9.59203Z" fill="white"/>
<path fill-rule="evenodd" clip-rule="evenodd" d="M11.1719 0.200073H23.0004C25.7618 0.200073 28.0004 2.43865 28.0004 5.20007V11.1681C28.0004 13.9296 25.7618 16.1681 23.0004 16.1681H21.8285V16.8002C21.8285 19.5616 19.5899 21.8002 16.8285 21.8002H5C2.23858 21.8002 0 19.5616 0 16.8002V10.8321C0 8.07068 2.23858 5.83211 5 5.83211H6.17188V5.20007C6.17188 2.43864 8.41045 0.200073 11.1719 0.200073ZM23.0004 14.1681H21.8285V10.8321C21.8285 8.07068 19.5899 5.83211 16.8285 5.83211H8.17188V5.20007C8.17188 3.54322 9.51502 2.20007 11.1719 2.20007H23.0004C24.6572 2.20007 26.0004 3.54322 26.0004 5.20007V11.1681C26.0004 12.825 24.6572 14.1681 23.0004 14.1681ZM16.8285 7.83211H8.17188V11.1681C8.17188 12.825 9.51502 14.1681 11.1719 14.1681H19.8285V10.8321C19.8285 9.17525 18.4854 7.83211 16.8285 7.83211ZM6.17188 11.1681V7.83211H5C3.34315 7.83211 2 9.17525 2 10.8321V16.8002C2 18.457 3.34315 19.8002 5 19.8002H16.8285C18.4854 19.8002 19.8285 18.457 19.8285 16.8002V16.1681H11.1719C8.41045 16.1681 6.17188 13.9296 6.17188 11.1681Z" fill="white"/>
<path d="M21 25.7843C21 26.4557 21.5034 27 22.1244 27H27.8755C28.4966 27 29 26.4557 29 25.7843V25.4721C29 24.9894 28.8407 24.5226 28.5508 24.1556C27.7677 23.1641 26.5746 22.6748 25.0016 22.6748C23.4289 22.6748 22.2353 23.1639 21.4506 24.155C21.1598 24.5223 21 24.9898 21 25.4732V25.7843Z" fill="white"/>
<path d="M22.503 19.7029C22.503 21.1957 23.6224 22.4058 25.0031 22.4058C26.3839 22.4058 27.5032 21.1957 27.5032 19.7029C27.5032 18.2101 26.3839 17 25.0031 17C23.6224 17 22.503 18.2101 22.503 19.7029Z" fill="white"/>
</svg>
