<svg width="28" height="22" viewBox="0 0 28 22" fill="none" xmlns="http://www.w3.org/2000/svg">
<g opacity="0.75">
<path d="M18.1145 5.0164C18.6826 5.0164 19.1431 4.54361 19.1431 3.96039C19.1431 3.37718 18.6826 2.90439 18.1145 2.90439C17.5464 2.90439 17.0859 3.37718 17.0859 3.96039C17.0859 4.54361 17.5464 5.0164 18.1145 5.0164Z" fill="white"/>
<path d="M20.8567 5.0164C21.4248 5.0164 21.8853 4.54361 21.8853 3.96039C21.8853 3.37718 21.4248 2.90439 20.8567 2.90439C20.2886 2.90439 19.8281 3.37718 19.8281 3.96039C19.8281 4.54361 20.2886 5.0164 20.8567 5.0164Z" fill="white"/>
<path d="M23.5989 5.0164C24.1669 5.0164 24.6274 4.54361 24.6274 3.96039C24.6274 3.37718 24.1669 2.90439 23.5989 2.90439C23.0308 2.90439 22.5703 3.37718 22.5703 3.96039C22.5703 4.54361 23.0308 5.0164 23.5989 5.0164Z" fill="white"/>
<path d="M11.9426 10.648C12.5107 10.648 12.9712 10.1752 12.9712 9.59203C12.9712 9.00882 12.5107 8.53603 11.9426 8.53603C11.3746 8.53603 10.9141 9.00882 10.9141 9.59203C10.9141 10.1752 11.3746 10.648 11.9426 10.648Z" fill="white"/>
<path d="M15.7144 9.59203C15.7144 10.1752 15.2539 10.648 14.6858 10.648C14.1177 10.648 13.6572 10.1752 13.6572 9.59203C13.6572 9.00882 14.1177 8.53603 14.6858 8.53603C15.2539 8.53603 15.7144 9.00882 15.7144 9.59203Z" fill="white"/>
<path d="M18.4575 9.59203C18.4575 10.1752 17.997 10.648 17.429 10.648C16.8609 10.648 16.4004 10.1752 16.4004 9.59203C16.4004 9.00882 16.8609 8.53603 17.429 8.53603C17.997 8.53603 18.4575 9.00882 18.4575 9.59203Z" fill="white"/>
<path fill-rule="evenodd" clip-rule="evenodd" d="M23.0004 0.200073H11.1719C8.41045 0.200073 6.17188 2.43865 6.17188 5.20007V5.83211H5C2.23858 5.83211 0 8.07068 0 10.8321V16.8002C0 19.5616 2.23858 21.8002 5 21.8002H16.8285C19.5899 21.8002 21.8285 19.5616 21.8285 16.8002V16.1681H23.0004C25.7618 16.1681 28.0004 13.9296 28.0004 11.1681V5.20007C28.0004 2.43865 25.7618 0.200073 23.0004 0.200073ZM21.8285 14.1681H23.0004C24.6572 14.1681 26.0004 12.825 26.0004 11.1681V5.20007C26.0004 3.54322 24.6572 2.20007 23.0004 2.20007H11.1719C9.51502 2.20007 8.17188 3.54322 8.17188 5.20007V5.83211H16.8285C19.5899 5.83211 21.8285 8.07068 21.8285 10.8321V14.1681ZM8.17188 7.83211H16.8285C18.4854 7.83211 19.8285 9.17525 19.8285 10.8321V14.1681H11.1719C9.51502 14.1681 8.17188 12.825 8.17188 11.1681V7.83211ZM6.17188 7.83211V11.1681C6.17188 13.9296 8.41045 16.1681 11.1719 16.1681H19.8285V16.8002C19.8285 18.457 18.4854 19.8002 16.8285 19.8002H5C3.34315 19.8002 2 18.457 2 16.8002V10.8321C2 9.17525 3.34315 7.83211 5 7.83211H6.17188Z" fill="white"/>
</g>
</svg>
