<svg width="24" height="28" viewBox="0 0 24 28" fill="none" xmlns="http://www.w3.org/2000/svg">
<path d="M3.37331 28C1.51025 28 8.45838e-07 26.4761 6.81477e-07 24.596L6.05337e-07 23.7251C4.86999e-07 22.3715 0.479413 21.0625 1.35169 20.0341C3.70587 17.2589 7.28663 15.8894 12.0049 15.8894C16.7239 15.8894 20.303 17.2594 22.6525 20.0358C23.5222 21.0634 24 22.3704 24 23.7218L24 24.596C24 26.4761 22.4897 28 20.6266 28L3.37331 28ZM3.37331 25.7296L20.6266 25.7296C21.247 25.7296 21.7499 25.2221 21.7499 24.596L21.7499 23.7218C21.7499 22.9109 21.4633 22.1267 20.9414 21.5102C19.0614 19.2887 16.1125 18.1598 12.0049 18.1598C7.8973 18.1598 4.94581 19.2887 3.061 21.5105C2.53763 22.1276 2.25007 22.913 2.25007 23.7251L2.25007 24.596C2.25007 25.2221 2.75304 25.7296 3.37331 25.7296ZM12.0094 15.1362C7.86712 15.1362 4.50912 11.7478 4.50912 7.5681C4.50912 3.38835 7.86712 -8.47276e-07 12.0094 -1.2094e-06C16.1517 -1.57153e-06 19.5096 3.38835 19.5096 7.5681C19.5096 11.7478 16.1517 15.1362 12.0094 15.1362ZM12.0094 12.8658C14.909 12.8658 17.2596 10.4939 17.2596 7.5681C17.2596 4.64227 14.909 2.27042 12.0094 2.27042C9.10976 2.27042 6.7592 4.64228 6.7592 7.5681C6.7592 10.4939 9.10976 12.8658 12.0094 12.8658Z" fill="white"/>
</svg>
